<svg xmlns="http://www.w3.org/2000/svg" viewBox="0 0 100 100" width="100" height="100">
  <rect width="100" height="100" fill="#f8f8f8" />
  <rect x="0" y="70" width="100" height="30" fill="#eef0f0" />
  <path d="M10 10 L10 90" stroke="#dddddd" stroke-width="0.8" />
  <path d="M30 10 L30 90" stroke="#dddddd" stroke-width="0.8" />
  <path d="M50 10 L50 90" stroke="#dddddd" stroke-width="0.8" />
  <path d="M70 10 L70 90" stroke="#dddddd" stroke-width="0.8" />
  <path d="M90 10 L90 90" stroke="#dddddd" stroke-width="0.8" />
  <path d="M10 10 L90 10" stroke="#dddddd" stroke-width="0.8" />
  <path d="M10 30 L90 30" stroke="#dddddd" stroke-width="0.8" />
  <path d="M10 50 L90 50" stroke="#dddddd" stroke-width="0.8" />
  <path d="M10 70 L90 70" stroke="#dddddd" stroke-width="0.8" />
  <path d="M10 90 L90 90" stroke="#dddddd" stroke-width="0.8" />
  <path d="M20 30 L30 40 L25 50 L35 60 L30 70" stroke="#aaaaaa" stroke-width="1.5" fill="none" />
  <path d="M70 20 L65 40 L75 60 L65 70" stroke="#aaaaaa" stroke-width="1.5" fill="none" />
  <path d="M10 50 L90 50" stroke="#f0c13b" stroke-width="2" stroke-dasharray="2,2" />
  <circle cx="40" cy="45" r="2" fill="#4d7e4d" />
  <circle cx="65" cy="35" r="2" fill="#4d7e4d" />
  <rect x="35" y="65" width="10" height="10" fill="#bbbbbb" />
  <rect x="55" y="25" width="8" height="8" fill="#bbbbbb" />
  <text x="35" y="25" font-family="Arial" font-size="4" fill="#555555">City A</text>
  <text x="60" y="50" font-family="Arial" font-size="3" fill="#555555">City B</text>
</svg>