<svg xmlns="http://www.w3.org/2000/svg" viewBox="0 0 100 100" width="100" height="100">
  <rect width="100" height="100" fill="#f1f1f1" />
  <path d="M0 90 C10 85, 20 80, 30 75 C40 70, 50 80, 60 75 C70 70, 80 60, 90 65 C95 68, 100 70, 100 70 L100 100 L0 100 Z" fill="#e0e9c0" />
  <path d="M0 95 C10 90, 20 85, 30 80 C40 75, 50 85, 60 80 C70 75, 80 65, 90 70 C95 73, 100 75, 100 75 L100 100 L0 100 Z" fill="#c5d4a9" />
  <path d="M0 100 C10 95, 20 90, 30 85 C40 80, 50 90, 60 85 C70 80, 80 70, 90 75 C95 78, 100 80, 100 80 L100 100 L0 100 Z" fill="#8fbc8f" />
  <path d="M0 50 C10 45, 20 55, 30 50 C40 45, 50 40, 60 45 C70 50, 80 40, 90 45 C95 48, 100 50, 100 50" stroke="#caad7e" stroke-width="0.5" fill="none" opacity="0.8" />
  <path d="M0 55 C10 50, 20 60, 30 55 C40 50, 50 45, 60 50 C70 55, 80 45, 90 50 C95 53, 100 55, 100 55" stroke="#caad7e" stroke-width="0.5" fill="none" opacity="0.8" />
  <path d="M0 60 C10 55, 20 65, 30 60 C40 55, 50 50, 60 55 C70 60, 80 50, 90 55 C95 58, 100 60, 100 60" stroke="#caad7e" stroke-width="0.5" fill="none" opacity="0.8" />
  <path d="M20 30 L30 40 L25 50 L35 60 L30 70" stroke="#4d7e4d" stroke-width="0.7" fill="none" />
  <path d="M70 20 L65 40 L75 60 L65 70" stroke="#4d7e4d" stroke-width="0.7" fill="none" />
  <circle cx="40" cy="45" r="1.5" fill="#4d7e4d" />
  <circle cx="65" cy="35" r="1.5" fill="#4d7e4d" />
  <text x="35" y="25" font-family="Arial" font-size="3.5" fill="#4d7e4d">City A</text>
  <text x="60" y="50" font-family="Arial" font-size="2.5" fill="#4d7e4d">City B</text>
</svg>